Coordinates
version=1
nRows=12
nColumns=38
inDegrees=no

Units are S.I. units (second, meters, Newtons, ...)
If the header above contains a line with 'inDegrees', this indicates whether rotational values are in degrees (yes) or radians (no).

endheader
time	pelvis_tilt	pelvis_list	pelvis_rotation	pelvis_tx	pelvis_ty	pelvis_tz	hip_flexion_r	hip_adduction_r	hip_rotation_r	knee_angle_r	ankle_angle_r	subtalar_angle_r	mtp_angle_r	hip_flexion_l	hip_adduction_l	hip_rotation_l	knee_angle_l	ankle_angle_l	subtalar_angle_l	mtp_angle_l	lumbar_extension	lumbar_bending	lumbar_rotation	arm_flex_r	arm_add_r	arm_rot_r	elbow_flex_r	pro_sup_r	wrist_flex_r	wrist_dev_r	arm_flex_l	arm_add_l	arm_rot_l	elbow_flex_l	pro_sup_l	wrist_flex_l	wrist_dev_l
27.6	-0.137395	-0.171658	1.55301	0.656772	0.991632	-0.970003	0.192681	-0.0553614	0.0390347	0.0750878	0.0766012	-0.00968234	0	0.0503076	-0.0475503	-0.391133	0.266757	0.0993001	0.034669	0	-0.116585	-0.0691101	0.0924904	0.0495302	-0.222525	0.175828	1.283	1.34865	0	0.048846	-0.00396513	-0.16525	-0.138321	0.781006	1.07294	0	0.048846
27.61	-0.136555	-0.17493	1.54811	0.656495	0.991306	-0.968478	0.197444	-0.0540224	0.0416202	0.0728701	0.0726481	-0.00808434	0	0.0776807	-0.0465249	-0.384763	0.26853	0.0973439	0.0324261	0	-0.115763	-0.0690402	0.101083	0.051167	-0.224358	0.179346	1.2837	1.3151	0	0.048846	-0.00641362	-0.16189	-0.141109	0.778388	1.13885	0	0.048846
27.62	-0.135504	-0.17868	1.54258	0.656243	0.991001	-0.966994	0.20326	-0.0521251	0.044234	0.0715228	0.0682265	-0.00889665	0	0.104826	-0.0461883	-0.379646	0.271131	0.0951596	0.0265632	0	-0.113864	-0.0686874	0.110255	0.0534639	-0.226182	0.179405	1.2826	1.34251	0	0.048846	-0.00907388	-0.157669	-0.140248	0.777343	1.12736	0	0.048846
27.63	-0.135888	-0.180186	1.53619	0.65607	0.99091	-0.965563	0.206944	-0.0517697	0.0457233	0.070632	0.0656956	-0.00569257	0	0.128061	-0.0447149	-0.376304	0.273084	0.0921678	0.0207319	0	-0.114589	-0.0700396	0.119277	0.0560565	-0.227402	0.182071	1.28224	1.33068	0	0.048846	-0.0116665	-0.153683	-0.140942	0.777442	1.12679	0	0.048846
27.64	-0.138394	-0.183507	1.52934	0.655936	0.990706	-0.964046	0.213346	-0.0534909	0.0475853	0.0708272	0.0649635	-0.0014884	0	0.1529	-0.0412216	-0.371166	0.275547	0.0878049	0.00975623	0	-0.113174	-0.073751	0.127711	0.0587316	-0.227628	0.184008	1.2808	1.33418	0	0.048846	-0.0145039	-0.150232	-0.140979	0.777656	1.12459	0	0.048846
27.65	-0.13997	-0.187368	1.52263	0.655726	0.990425	-0.96258	0.220112	-0.0540858	0.0503938	0.0705567	0.0639294	0.00239504	0	0.177703	-0.0387816	-0.365049	0.278489	0.0846954	-0.00492483	0	-0.110488	-0.0761845	0.135667	0.0617822	-0.227982	0.186596	1.27851	1.33656	0	0.048846	-0.0175441	-0.146672	-0.140743	0.777416	1.12571	0	0.048846
27.66	-0.141877	-0.190768	1.5159	0.655442	0.990202	-0.961145	0.226632	-0.0550958	0.0535966	0.0706117	0.062313	0.00653366	0	0.201229	-0.0359538	-0.357395	0.280712	0.0796617	-0.0225938	0	-0.108353	-0.0788818	0.142672	0.0650921	-0.227882	0.188642	1.27666	1.33866	0	0.048846	-0.0203738	-0.143072	-0.142231	0.777554	1.1282	0	0.048846
27.67	-0.144907	-0.19256	1.51007	0.655067	0.990231	-0.959662	0.232113	-0.0577334	0.0556892	0.072025	0.0607682	0.00953391	0	0.222933	-0.0316793	-0.346654	0.282294	0.0719261	-0.0430004	0	-0.108495	-0.0828641	0.147658	0.0690171	-0.227508	0.19114	1.27505	1.34075	0	0.048846	-0.0223254	-0.139724	-0.14441	0.776788	1.13051	0	0.048846
27.68	-0.145014	-0.194746	1.50508	0.654597	0.990143	-0.958372	0.237311	-0.0573914	0.0575619	0.0730151	0.0595441	0.0116284	0	0.244264	-0.031563	-0.339483	0.285555	0.0695112	-0.0545222	0	-0.107672	-0.0833155	0.152066	0.0728338	-0.22803	0.194968	1.27317	1.3431	0	0.048846	-0.0249367	-0.136136	-0.145811	0.775543	1.13332	0	0.048846
27.69	-0.144807	-0.1959	1.4999	0.654144	0.99002	-0.957343	0.240224	-0.056623	0.0608216	0.0722542	0.0586435	0.0138367	0	0.263222	-0.0331478	-0.33831	0.290995	0.0713486	-0.0553184	0	-0.107442	-0.083223	0.156128	0.0763644	-0.228017	0.197955	1.27207	1.34406	0	0.048846	-0.0281158	-0.132717	-0.146711	0.774971	1.13581	0	0.048846
27.7	-0.146534	-0.197617	1.4953	0.65368	0.989939	-0.956302	0.244027	-0.0579302	0.0634981	0.0721485	0.0571685	0.0143848	0	0.282592	-0.0328418	-0.336184	0.297686	0.0712337	-0.0587441	0	-0.106461	-0.0850765	0.158676	0.0796193	-0.226842	0.199862	1.27077	1.34847	0	0.048846	-0.0309214	-0.130266	-0.148397	0.773278	1.17191	0	0.048846
27.71	-0.146566	-0.196827	1.492	0.653225	0.990118	-0.955451	0.244057	-0.0579191	0.0641194	0.0708912	0.0549478	0.0157536	0	0.297571	-0.0337903	-0.333363	0.303073	0.0694977	-0.059305	0	-0.107997	-0.0851519	0.160195	0.0828738	-0.225858	0.202531	1.26877	1.34901	0	0.048846	-0.0331168	-0.127677	-0.147537	0.771474	1.17509	0	0.048846
